<?xml version="1.0" encoding="UTF-8"?>
<svg xmlns="http://www.w3.org/2000/svg" width="800" height="480" viewBox="0 0 800 480">
<rect x="0" y="0" width="800" height="480" fill="#f7f4ef"/>
<rect x="50" y="50" width="700" height="380" fill="#ffffff" stroke="#222222" stroke-width="2"/>
<line x1="50" y1="430" x2="750" y2="430" stroke="#222222" stroke-width="2"/>
<line x1="50" y1="430" x2="50" y2="50" stroke="#222222" stroke-width="2"/>
<text x="355" y="468" font-family="Verdana" font-size="14" fill="#222222">remainSeconds</text>
<text x="16" y="34" font-family="Verdana" font-size="14" fill="#222222">p(t)</text>
<line x1="50.00" y1="430.00" x2="50.00" y2="436.00" stroke="#222222" stroke-width="1"/>
<text x="50.00" y="450.00" font-family="Verdana" font-size="12" fill="#222222" text-anchor="middle">0</text>
<line x1="166.67" y1="430.00" x2="166.67" y2="436.00" stroke="#222222" stroke-width="1"/>
<text x="166.67" y="450.00" font-family="Verdana" font-size="12" fill="#222222" text-anchor="middle">50</text>
<line x1="283.33" y1="430.00" x2="283.33" y2="436.00" stroke="#222222" stroke-width="1"/>
<text x="283.33" y="450.00" font-family="Verdana" font-size="12" fill="#222222" text-anchor="middle">100</text>
<line x1="400.00" y1="430.00" x2="400.00" y2="436.00" stroke="#222222" stroke-width="1"/>
<text x="400.00" y="450.00" font-family="Verdana" font-size="12" fill="#222222" text-anchor="middle">150</text>
<line x1="516.67" y1="430.00" x2="516.67" y2="436.00" stroke="#222222" stroke-width="1"/>
<text x="516.67" y="450.00" font-family="Verdana" font-size="12" fill="#222222" text-anchor="middle">200</text>
<line x1="633.33" y1="430.00" x2="633.33" y2="436.00" stroke="#222222" stroke-width="1"/>
<text x="633.33" y="450.00" font-family="Verdana" font-size="12" fill="#222222" text-anchor="middle">250</text>
<line x1="750.00" y1="430.00" x2="750.00" y2="436.00" stroke="#222222" stroke-width="1"/>
<text x="750.00" y="450.00" font-family="Verdana" font-size="12" fill="#222222" text-anchor="middle">300</text>
<line x1="50.00" y1="50.00" x2="44.00" y2="50.00" stroke="#222222" stroke-width="1"/>
<text x="40.00" y="50.00" font-family="Verdana" font-size="12" fill="#222222" text-anchor="end" dominant-baseline="middle">1.00</text>
<line x1="50.00" y1="126.00" x2="44.00" y2="126.00" stroke="#222222" stroke-width="1"/>
<text x="40.00" y="126.00" font-family="Verdana" font-size="12" fill="#222222" text-anchor="end" dominant-baseline="middle">0.80</text>
<line x1="50.00" y1="202.00" x2="44.00" y2="202.00" stroke="#222222" stroke-width="1"/>
<text x="40.00" y="202.00" font-family="Verdana" font-size="12" fill="#222222" text-anchor="end" dominant-baseline="middle">0.60</text>
<line x1="50.00" y1="278.00" x2="44.00" y2="278.00" stroke="#222222" stroke-width="1"/>
<text x="40.00" y="278.00" font-family="Verdana" font-size="12" fill="#222222" text-anchor="end" dominant-baseline="middle">0.40</text>
<line x1="50.00" y1="354.00" x2="44.00" y2="354.00" stroke="#222222" stroke-width="1"/>
<text x="40.00" y="354.00" font-family="Verdana" font-size="12" fill="#222222" text-anchor="end" dominant-baseline="middle">0.20</text>
<line x1="50.00" y1="430.00" x2="44.00" y2="430.00" stroke="#222222" stroke-width="1"/>
<text x="40.00" y="430.00" font-family="Verdana" font-size="12" fill="#222222" text-anchor="end" dominant-baseline="middle">0.00</text>
<polyline fill="none" stroke="#1e5aa8" stroke-width="3" points="50.00,430.00 51.43,380.05 52.86,336.67 54.29,298.99 55.71,266.26 57.14,237.79 58.57,213.11 60.00,191.67 61.43,173.05 62.86,156.85 64.29,142.81 65.71,130.61 67.14,120.01 68.57,110.80 70.00,102.81 71.43,95.87 72.86,89.84 74.29,84.59 75.71,80.05 77.14,76.10 78.57,72.67 80.00,69.68 81.43,67.10 82.86,64.85 84.29,62.90 85.71,61.20 87.14,59.73 88.57,58.45 90.00,57.34 91.43,56.37 92.86,55.53 94.29,54.81 95.71,54.18 97.14,53.63 98.57,53.15 100.00,52.74 101.43,52.38 102.86,52.06 104.29,51.79 105.71,51.56 107.14,51.35 108.57,51.17 110.00,51.02 111.43,50.89 112.86,50.77 114.29,50.67 115.71,50.58 117.14,50.50 118.57,50.44 120.00,50.38"/>
<rect x="570" y="56" width="10" height="10" fill="#1e5aa8"/>
<text x="586" y="66" font-family="Verdana" font-size="12" fill="#222222">30s (k=0.000230)</text>
<polyline fill="none" stroke="#c2432b" stroke-width="3" points="50.00,430.00 52.86,380.05 55.71,336.67 58.57,298.96 61.43,266.24 64.29,237.79 67.14,213.11 70.00,191.66 72.86,173.04 75.71,156.85 78.57,142.81 81.43,130.60 84.29,120.01 87.14,110.80 90.00,102.81 92.86,95.86 95.71,89.83 98.57,84.59 101.43,80.05 104.29,76.09 107.14,72.66 110.00,69.68 112.86,67.10 115.71,64.85 118.57,62.90 121.43,61.20 124.29,59.73 127.14,58.45 130.00,57.34 132.86,56.37 135.71,55.53 138.57,54.81 141.43,54.17 144.29,53.63 147.14,53.15 150.00,52.73 152.86,52.38 155.71,52.06 158.57,51.79 161.43,51.56 164.29,51.35 167.14,51.17 170.00,51.02 172.86,50.89 175.71,50.77 178.57,50.67 181.43,50.58 184.29,50.50 187.14,50.44 190.00,50.38"/>
<rect x="570" y="74" width="10" height="10" fill="#c2432b"/>
<text x="586" y="84" font-family="Verdana" font-size="12" fill="#222222">60s (k=0.000115)</text>
<polyline fill="none" stroke="#2c8a45" stroke-width="3" points="50.00,430.00 55.71,380.05 61.43,336.65 67.14,298.96 72.86,266.23 78.57,237.79 84.29,213.10 90.00,191.66 95.71,173.03 101.43,156.85 107.14,142.80 112.86,130.60 118.57,120.00 124.29,110.80 130.00,102.80 135.71,95.86 141.43,89.83 147.14,84.59 152.86,80.04 158.57,76.09 164.29,72.66 170.00,69.68 175.71,67.09 181.43,64.85 187.14,62.89 192.86,61.20 198.57,59.73 204.29,58.45 210.00,57.34 215.71,56.37 221.43,55.53 227.14,54.81 232.86,54.17 238.57,53.63 244.29,53.15 250.00,52.73 255.71,52.38 261.43,52.06 267.14,51.79 272.86,51.56 278.57,51.35 284.29,51.17 290.00,51.02 295.71,50.89 301.43,50.77 307.14,50.67 312.86,50.58 318.57,50.50 324.29,50.44 330.00,50.38"/>
<rect x="570" y="92" width="10" height="10" fill="#2c8a45"/>
<text x="586" y="102" font-family="Verdana" font-size="12" fill="#222222">120s (k=0.000058)</text>
<polyline fill="none" stroke="#1e5aa8" stroke-width="3" points="50.00,430.00 64.29,380.04 78.57,336.64 92.86,298.95 107.14,266.22 121.43,237.79 135.71,213.10 150.00,191.65 164.29,173.03 178.57,156.85 192.86,142.80 207.14,130.60 221.43,120.00 235.71,110.80 250.00,102.80 264.29,95.86 278.57,89.83 292.86,84.59 307.14,80.04 321.43,76.09 335.71,72.66 350.00,69.68 364.29,67.09 378.57,64.85 392.86,62.89 407.14,61.20 421.43,59.73 435.71,58.45 450.00,57.34 464.29,56.37 478.57,55.53 492.86,54.81 507.14,54.17 521.43,53.63 535.71,53.15 550.00,52.73 564.29,52.38 578.57,52.06 592.86,51.79 607.14,51.56 621.43,51.35 635.71,51.17 650.00,51.02 664.29,50.89 678.57,50.77 692.86,50.67 707.14,50.58 721.43,50.50 735.71,50.44 750.00,50.38"/>
<rect x="570" y="110" width="10" height="10" fill="#1e5aa8"/>
<text x="586" y="120" font-family="Verdana" font-size="12" fill="#222222">300s (k=0.000023)</text>
</svg>
